<svg
              width="50"
              height="50"
              viewBox="0 0 338 338"
              fill="none"
              xmlns="http://www.w3.org/2000/svg"
            >
              <path
                d="M307.168 169C309.008 169 310.504 167.508 310.461 165.669C309.623 130.04 295.363 95.9893 270.466 70.3749C244.794 43.9633 209.835 28.6027 173.017 27.557C136.2 26.5113 100.425 39.8629 73.2954 64.7749C46.1655 89.6868 29.8187 124.196 27.7281 160.969C25.6376 197.742 37.9681 233.881 62.0998 261.707C86.2315 289.533 120.262 306.853 156.961 309.987C193.66 313.121 230.135 301.821 258.635 278.489C286.274 255.862 304.301 223.647 309.172 188.342C309.423 186.52 308.106 184.868 306.278 184.659V184.659C304.45 184.451 302.803 185.764 302.55 187.587C297.877 221.168 280.712 251.804 254.414 273.333C227.256 295.567 192.499 306.334 157.528 303.348C122.557 300.362 90.1289 283.857 67.1336 257.342C44.1383 230.826 32.3883 196.388 34.3804 161.347C36.3725 126.305 51.9497 93.4216 77.802 69.6827C103.654 45.9439 137.744 33.221 172.828 34.2174C207.912 35.2139 241.225 49.8511 265.688 75.0191C289.376 99.3897 302.959 131.774 303.796 165.669C303.841 167.508 305.329 169 307.168 169V169Z"
                fill="url(#paint0_linear_0_1)"
              />
              <path
                d="M275.745 62.2548C277.167 60.8333 277.17 58.5251 275.715 57.1374C247.541 30.259 210.219 14.9691 171.195 14.415C130.956 13.8437 92.0808 28.9849 62.8286 56.6213C33.5764 84.2578 16.2531 122.211 14.5397 162.417C12.8262 202.623 26.8575 241.913 53.6524 271.938C80.4472 301.963 117.894 320.357 158.035 323.211C198.176 326.065 237.848 313.155 268.622 287.224C299.395 261.292 318.845 224.383 322.838 184.339C326.71 145.504 315.748 106.689 292.236 75.6503C291.022 74.0479 288.729 73.7891 287.155 75.0404V75.0404C285.582 76.2916 285.325 78.5788 286.537 80.1827C308.87 109.737 319.278 146.667 315.594 183.617C311.789 221.775 293.255 256.946 263.931 281.657C234.606 306.367 196.802 318.669 158.551 315.95C120.3 313.23 84.617 295.702 59.0839 267.091C33.5509 238.48 20.1802 201.04 21.813 162.727C23.4458 124.414 39.9533 88.2482 67.8281 61.9131C95.7028 35.578 132.748 21.1499 171.091 21.6943C208.22 22.2214 243.734 36.7473 270.566 62.2867C272.022 63.6727 274.324 63.6763 275.745 62.2548V62.2548Z"
                fill="url(#paint1_linear_0_1)"
              />
              <path
                d="M86.5048 26.1141C85.4062 24.2114 82.9703 23.5554 81.0939 24.6985C44.7489 46.838 18.0498 81.9145 6.42613 122.955C-5.55938 165.273 -0.571732 210.597 20.3293 249.296C41.2303 287.995 76.3973 317.019 118.358 330.201C160.319 343.383 205.766 339.684 245.043 319.89C284.319 300.096 314.33 265.768 328.698 224.198C343.066 182.629 340.659 137.095 321.988 97.2719C303.318 57.4489 269.855 26.4756 228.71 10.9331C188.807 -4.14019 144.729 -3.54801 105.311 12.4939C103.276 13.3221 102.354 15.6703 103.23 17.6853V17.6853C104.106 19.7003 106.448 20.6189 108.484 19.7931C146.001 4.57537 187.933 4.03488 225.898 18.3763C265.106 33.1869 296.993 62.7017 314.784 100.649C332.576 138.597 334.87 181.987 321.178 221.599C307.487 261.211 278.889 293.923 241.462 312.785C204.035 331.647 160.728 335.172 120.743 322.61C80.7579 310.049 47.2468 282.392 27.33 245.515C7.41319 208.638 2.66041 165.449 14.0815 125.123C25.1408 86.0754 50.5215 52.6934 85.0734 31.5909C86.9485 30.4457 87.6034 28.0169 86.5048 26.1141V26.1141Z"
                fill="url(#paint2_linear_0_1)"
              />
              <path
                d="M226.005 146.388C223.031 139.578 218.719 133.463 213.227 128.178C207.794 122.951 201.354 118.787 194.265 115.917C186.924 112.931 179.029 111.4 171.055 111.418C164.461 111.418 158.01 112.429 151.873 114.438C137.537 108.02 120.983 107.522 116.231 107.522C115.884 107.522 115.066 107.522 114.751 107.552C112.879 107.613 111.164 108.534 110.156 110.029C109.134 111.524 108.945 113.411 109.621 115.087L119.74 139.488C114.291 148.32 111.421 158.397 111.431 168.66C111.431 176.421 113.005 183.911 116.12 190.947C119.094 197.742 123.39 203.872 128.898 209.142C134.358 214.397 140.763 218.519 147.86 221.403C155.209 224.393 163.014 225.903 171.055 225.903C179.127 225.903 186.932 224.378 194.297 221.403C201.362 218.549 207.751 214.412 213.243 209.142C218.703 203.887 223.015 197.757 226.021 190.932C229.132 183.882 230.727 176.301 230.71 168.645C230.679 160.914 229.121 153.425 226.005 146.388ZM215.556 186.629C213.13 192.159 209.608 197.184 205.186 201.426C200.717 205.73 195.54 209.082 189.812 211.377H189.796C183.817 213.793 177.475 215.031 170.929 215.031C164.57 215.038 158.272 213.838 152.399 211.5C146.525 209.163 141.191 205.734 136.703 201.411C132.234 197.108 128.741 192.14 126.349 186.644V186.629C123.831 180.921 122.556 174.821 122.556 168.524C122.556 160.159 124.885 151.96 129.291 144.818L131.369 141.481L129.874 137.872L121.801 118.394C124.146 118.484 127.45 118.711 131.195 119.239C138.088 120.221 144.178 121.882 149.276 124.162L152.266 125.506L155.397 124.479C160.354 122.848 165.594 122.033 170.96 122.033C177.319 122.026 183.617 123.226 189.491 125.563C195.364 127.901 200.699 131.33 205.186 135.653C209.655 139.956 213.149 144.924 215.54 150.42L215.556 150.435L215.572 150.45C218.09 156.128 219.364 162.228 219.38 168.539C219.364 174.836 218.074 180.921 215.556 186.629ZM196.563 144.395C193.353 144.395 178.504 159.496 178.504 162.576L190.725 158.317C190.725 161.397 193.337 163.919 196.563 163.919C199.789 163.919 202.401 161.397 202.401 158.317V149.997C202.401 146.902 199.773 144.395 196.563 144.395ZM168.993 144.395C165.767 144.395 152.399 159.496 152.399 162.576L163.155 158.317C163.155 161.397 165.783 163.919 168.993 163.919C172.219 163.919 174.831 161.397 174.831 158.317V149.997C174.831 146.902 172.203 144.395 168.993 144.395Z"
                fill="url(#paint3_linear_0_1)"
              />
              <defs>
                <linearGradient
                  id="paint0_linear_0_1"
                  x1="169"
                  y1="27.5"
                  x2="169"
                  y2="310.5"
                  gradientUnits="userSpaceOnUse"
                >
                  <stop stopColor="#7411C1" />
                  <stop offset="1" stopColor="#D30DA8" />
                </linearGradient>
                <linearGradient
                  id="paint1_linear_0_1"
                  x1="59.6809"
                  y1="59.6809"
                  x2="278.319"
                  y2="278.319"
                  gradientUnits="userSpaceOnUse"
                >
                  <stop stopColor="#7411C1" />
                  <stop offset="1" stopColor="#D30DA8" />
                </linearGradient>
                <linearGradient
                  id="paint2_linear_0_1"
                  x1="22.6689"
                  y1="253.484"
                  x2="315.331"
                  y2="84.5157"
                  gradientUnits="userSpaceOnUse"
                >
                  <stop stopColor="#7411C1" />
                  <stop offset="1" stopColor="#D30DA8" />
                </linearGradient>
                <linearGradient
                  id="paint3_linear_0_1"
                  x1="109.223"
                  y1="94.6372"
                  x2="227.2"
                  y2="233.27"
                  gradientUnits="userSpaceOnUse"
                >
                  <stop stopColor="#7411C1" />
                  <stop offset="1" stopColor="#D30DA8" />
                </linearGradient>
              </defs>
            </svg>